<svg width="594" height="507" viewBox="0 0 594 507" fill="none" xmlns="http://www.w3.org/2000/svg">
<path d="M462 261C462 281.435 445.435 298 425 298C404.565 298 388 281.435 388 261C388 240.565 404.565 224 425 224C445.435 224 462 240.565 462 261Z" fill="white"/>
<path d="M510.545 285.557C504.74 305.78 491.957 323.293 474.466 334.987C456.975 346.682 435.906 351.801 414.999 349.436C394.092 347.072 374.699 337.377 360.261 322.072C345.823 306.767 337.274 286.842 336.131 265.833C334.989 244.824 341.327 224.089 354.02 207.308C366.713 190.528 384.941 178.787 405.468 174.17C425.995 169.552 447.495 172.357 466.151 182.085C484.807 191.814 499.414 207.837 507.378 227.312L477.89 239.371C472.777 226.867 463.399 216.579 451.421 210.333C439.443 204.087 425.639 202.287 412.46 205.251C399.28 208.216 387.577 215.754 379.428 226.528C371.278 237.302 367.209 250.614 367.943 264.103C368.676 277.592 374.165 290.385 383.435 300.211C392.704 310.037 405.156 316.262 418.579 317.78C432.002 319.298 445.529 316.011 456.759 308.503C467.989 300.995 476.196 289.751 479.924 276.766L510.545 285.557Z" fill="white"/>
<path d="M593.187 308.923C581.74 348.803 556.534 383.336 522.043 406.396C487.552 429.456 446.006 439.551 404.779 434.889C363.552 430.226 325.31 411.109 296.84 380.929C268.369 350.749 251.512 311.458 249.259 270.03C247.006 228.601 259.503 187.714 284.533 154.625C309.563 121.536 345.506 98.384 385.985 89.2786C426.463 80.1732 468.858 85.7031 505.646 104.887C542.435 124.07 571.237 155.667 586.942 194.07L528.794 217.849C518.711 193.193 500.219 172.907 476.599 160.59C452.98 148.273 425.76 144.723 399.771 150.569C373.783 156.415 350.706 171.279 334.635 192.524C318.565 213.769 310.541 240.02 311.988 266.619C313.434 293.217 324.258 318.444 342.537 337.82C360.816 357.197 385.369 369.472 411.838 372.465C438.308 375.458 464.982 368.977 487.126 354.172C509.271 339.366 525.455 317.194 532.804 291.59L593.187 308.923Z" fill="white"/>
<path d="M527.186 506V462.843H535.337V480.586H554.638V462.843H562.79V506H554.638V488.198H535.337V506H527.186Z" fill="white"/>
<path d="M503.276 506.899C500.079 506.899 497.192 506.34 494.614 505.221C492.057 504.082 489.949 502.464 488.29 500.366C486.652 498.248 485.613 495.73 485.174 492.813L493.685 491.555C494.284 494.032 495.523 495.94 497.401 497.279C499.28 498.617 501.417 499.287 503.815 499.287C505.154 499.287 506.452 499.077 507.711 498.657C508.97 498.238 509.999 497.618 510.798 496.799C511.617 495.98 512.027 494.971 512.027 493.772C512.027 493.333 511.957 492.913 511.817 492.514C511.697 492.094 511.487 491.704 511.188 491.345C510.888 490.985 510.458 490.645 509.899 490.326C509.359 490.006 508.67 489.716 507.831 489.457L496.622 486.16C495.783 485.92 494.804 485.58 493.685 485.141C492.586 484.701 491.517 484.072 490.478 483.253C489.439 482.434 488.57 481.355 487.871 480.016C487.192 478.657 486.852 476.949 486.852 474.891C486.852 471.994 487.581 469.586 489.04 467.668C490.498 465.75 492.446 464.322 494.884 463.383C497.321 462.444 500.019 461.984 502.976 462.004C505.953 462.044 508.61 462.553 510.948 463.533C513.286 464.512 515.244 465.94 516.822 467.818C518.4 469.676 519.539 471.954 520.239 474.651L511.427 476.15C511.108 474.751 510.518 473.572 509.659 472.613C508.8 471.654 507.771 470.925 506.572 470.426C505.393 469.926 504.155 469.656 502.856 469.616C501.577 469.576 500.368 469.756 499.23 470.156C498.111 470.536 497.192 471.095 496.472 471.834C495.773 472.573 495.423 473.453 495.423 474.472C495.423 475.411 495.713 476.18 496.292 476.779C496.872 477.359 497.601 477.828 498.48 478.188C499.359 478.548 500.259 478.847 501.178 479.087L508.67 481.125C509.789 481.425 511.028 481.824 512.386 482.324C513.745 482.803 515.044 483.483 516.283 484.362C517.541 485.221 518.57 486.36 519.369 487.778C520.189 489.197 520.598 490.995 520.598 493.173C520.598 495.491 520.109 497.519 519.13 499.257C518.171 500.975 516.872 502.404 515.234 503.543C513.595 504.661 511.737 505.501 509.659 506.06C507.601 506.619 505.473 506.899 503.276 506.899Z" fill="white"/>
<path d="M444.229 506L457.416 462.843H469.584L482.771 506H474.379L462.631 467.938H464.189L452.621 506H444.229ZM452.141 497.009V489.397H474.919V497.009H452.141Z" fill="white"/>
<path d="M422.198 506.899C417.882 506.899 414.156 505.96 411.019 504.082C407.902 502.204 405.494 499.577 403.796 496.2C402.118 492.823 401.279 488.897 401.279 484.422C401.279 479.946 402.118 476.02 403.796 472.643C405.494 469.267 407.902 466.639 411.019 464.761C414.156 462.883 417.882 461.944 422.198 461.944C427.153 461.944 431.309 463.173 434.665 465.63C438.042 468.088 440.419 471.415 441.798 475.61L433.586 477.888C432.787 475.271 431.438 473.243 429.54 471.804C427.642 470.346 425.195 469.616 422.198 469.616C419.46 469.616 417.173 470.226 415.334 471.445C413.516 472.663 412.148 474.382 411.229 476.599C410.309 478.817 409.85 481.425 409.85 484.422C409.85 487.419 410.309 490.026 411.229 492.244C412.148 494.462 413.516 496.18 415.334 497.399C417.173 498.617 419.46 499.227 422.198 499.227C425.195 499.227 427.642 498.498 429.54 497.039C431.438 495.58 432.787 493.553 433.586 490.955L441.798 493.233C440.419 497.429 438.042 500.755 434.665 503.213C431.309 505.67 427.153 506.899 422.198 506.899Z" fill="white"/>
<path d="M377.102 506V470.456H363.495V462.843H398.86V470.456H385.253V506H377.102Z" fill="white"/>
<path d="M326.749 506L339.936 462.843H352.104L365.291 506H356.899L345.151 467.938H346.709L335.141 506H326.749ZM334.661 497.009V489.397H357.438V497.009H334.661Z" fill="white"/>
<path d="M304.717 506.899C300.402 506.899 296.675 505.96 293.538 504.082C290.422 502.204 288.014 499.577 286.316 496.2C284.637 492.823 283.798 488.897 283.798 484.422C283.798 479.946 284.637 476.02 286.316 472.643C288.014 469.267 290.422 466.639 293.538 464.761C296.675 462.883 300.402 461.944 304.717 461.944C309.672 461.944 313.828 463.173 317.185 465.63C320.561 468.088 322.939 471.415 324.318 475.61L316.106 477.888C315.307 475.271 313.958 473.243 312.06 471.804C310.162 470.346 307.714 469.616 304.717 469.616C301.98 469.616 299.692 470.226 297.854 471.445C296.036 472.663 294.667 474.382 293.748 476.599C292.829 478.817 292.37 481.425 292.37 484.422C292.37 487.419 292.829 490.026 293.748 492.244C294.667 494.462 296.036 496.18 297.854 497.399C299.692 498.617 301.98 499.227 304.717 499.227C307.714 499.227 310.162 498.498 312.06 497.039C313.958 495.58 315.307 493.553 316.106 490.955L324.318 493.233C322.939 497.429 320.561 500.755 317.185 503.213C313.828 505.67 309.672 506.899 304.717 506.899Z" fill="white"/>
<path d="M284.521 40.0951C283.954 33.3004 291.602 28.9554 297.147 32.9218L381.117 92.9774C385.868 96.3755 385.494 103.555 380.415 106.44L305.043 149.261C299.964 152.147 293.605 148.793 293.119 142.972L284.521 40.0951Z" fill="white"/>
<path d="M434.149 4.82201C437.348 -1.19933 446.131 -0.715251 448.649 5.62118L486.77 101.56C488.927 106.989 484.728 112.824 478.895 112.502L392.34 107.731C386.507 107.41 382.975 101.149 385.715 95.9902L434.149 4.82201Z" fill="white"/>
<path d="M144.485 161.135C180.083 176.38 202.353 213.626 201.764 276.533C201.516 302.993 206.415 321.022 213.154 333.227C219.766 345.202 228.728 352.647 238.796 357.243C259.96 366.903 287.508 364.445 307.13 358.006L307.635 357.847C318.247 354.66 329.525 360.503 333 371.092C336.53 381.849 330.672 393.432 319.915 396.962L318.736 397.342C293.776 405.289 255.341 409.864 221.771 394.541C204.207 386.523 188.386 373.192 177.262 353.045C166.263 333.127 160.469 307.687 160.764 276.149C161.262 223.06 143.379 205.262 128.344 198.824C110.366 191.125 86.1511 194.873 68.1829 202.552L52.0699 164.852C74.9335 155.08 111.83 147.15 144.485 161.135ZM68.1829 202.552C57.7723 207.002 45.7259 202.17 41.2762 191.759C36.8266 181.349 41.6591 169.301 52.0699 164.852L68.1829 202.552Z" fill="white"/>
</svg>
